<svg xmlns="http://www.w3.org/2000/svg" xmlns:xlink="http://www.w3.org/1999/xlink" width="2000" zoomAndPan="magnify" viewBox="0 0 1500 1499.999933" height="2000" preserveAspectRatio="xMidYMid meet" version="1.0"><defs><clipPath id="2b4caa9b8e"><path d="M 165 1081 L 1362 1081 L 1362 1430.316406 L 165 1430.316406 Z M 165 1081 " clip-rule="nonzero"/></clipPath><clipPath id="24f95381f0"><path d="M 78.359375 731 L 1447.109375 731 L 1447.109375 1082 L 78.359375 1082 Z M 78.359375 731 " clip-rule="nonzero"/></clipPath><clipPath id="a6ab7060d3"><path d="M 78.359375 61.566406 L 1447.109375 61.566406 L 1447.109375 732 L 78.359375 732 Z M 78.359375 61.566406 " clip-rule="nonzero"/></clipPath><clipPath id="878a02d793"><path d="M 67 58 L 1450 58 L 1450 1441 L 67 1441 Z M 67 58 " clip-rule="nonzero"/></clipPath><clipPath id="a92c043786"><path d="M 1005.539062 -198.902344 L 1709.585938 1000.183594 L 516.964844 1700.433594 L -187.082031 501.347656 Z M 1005.539062 -198.902344 " clip-rule="nonzero"/></clipPath><clipPath id="f9094a1827"><path d="M 1005.539062 -198.902344 L 1709.585938 1000.183594 L 516.964844 1700.433594 L -187.082031 501.347656 Z M 1005.539062 -198.902344 " clip-rule="nonzero"/></clipPath></defs><g clip-path="url(#2b4caa9b8e)"><path fill="#e10e00" d="M 1360.957031 1081.421875 C 1243.675781 1290.222656 1020.113281 1431.390625 763.539062 1431.390625 C 506.964844 1431.390625 283.132812 1290.222656 165.851562 1081.421875 L 1361.226562 1081.421875 Z M 1360.957031 1081.421875 " fill-opacity="1" fill-rule="evenodd"/></g><g clip-path="url(#24f95381f0)"><path fill="#0600b8" d="M 1448.449219 746.746094 C 1448.449219 868.324219 1416.78125 982.65625 1361.226562 1081.6875 L 165.582031 1081.6875 C 109.757812 982.65625 78.359375 868.324219 78.359375 746.746094 C 78.359375 741.648438 78.359375 736.28125 78.359375 731.179688 L 1447.914062 731.179688 C 1447.914062 736.28125 1447.914062 741.648438 1447.914062 746.746094 Z M 1448.449219 746.746094 " fill-opacity="1" fill-rule="evenodd"/></g><g clip-path="url(#a6ab7060d3)"><path fill="#ffde17" d="M 1448.183594 731.179688 L 78.359375 731.179688 C 86.945312 360.007812 390.21875 61.566406 763.539062 61.566406 C 1136.859375 61.566406 1439.863281 360.007812 1448.183594 731.179688 Z M 1448.183594 731.179688 " fill-opacity="1" fill-rule="evenodd"/></g><g clip-path="url(#878a02d793)"><g clip-path="url(#a92c043786)"><g clip-path="url(#f9094a1827)"><path fill="#ffffff" d="M 411.523438 151.507812 C 738.910156 -39.53125 1165.265625 73.367188 1356.148438 401.617188 C 1547.152344 730.097656 1435.550781 1158.785156 1101.90625 1347.734375 C 771.589844 1534.792969 360.417969 1430.8125 164.808594 1099.140625 C -35.128906 760.140625 85.242188 345.769531 411.523438 151.507812 Z M 723.144531 1134.714844 C 799.816406 1086.917969 855.457031 1013.367188 901.414062 931.28125 C 907.316406 920.730469 907.867188 910.382812 903.398438 898.78125 C 873.226562 820.589844 843.050781 742.375 813.945312 663.789062 C 806.828125 644.585938 794.558594 635.164062 775.542969 629.855469 C 695.765625 607.574219 615.542969 587.789062 533.371094 576.003906 C 510.367188 572.710938 494.9375 578.632812 480.507812 596.691406 C 435.980469 652.488281 390.421875 707.472656 344.535156 762.175781 C 333.566406 775.246094 328.550781 788.164062 330.570312 805.417969 C 341.253906 896.699219 373.714844 981.042969 411.59375 1063.710938 C 416.488281 1074.386719 423.734375 1082.601562 435.695312 1086.007812 C 516.355469 1109.019531 596.976562 1132.164062 679.960938 1145.699219 C 693.953125 1148.003906 707.074219 1146.707031 723.144531 1134.714844 Z M 961.972656 246.285156 C 948.71875 211.796875 910.003906 191.09375 863.214844 181.332031 C 800.953125 168.339844 737.773438 161.976562 674.597656 155.539062 C 664.15625 154.476562 653.976562 154.488281 645.164062 160.695312 C 578.578125 207.652344 509.125 251.066406 455.660156 314.234375 C 445.75 325.941406 439.296875 337.527344 444.410156 354.296875 C 462.578125 413.90625 479.714844 473.828125 497.054688 533.679688 C 501.570312 549.273438 510.195312 558.886719 527.351562 561.292969 C 613.910156 573.488281 699.542969 590.117188 782.554688 618.21875 C 799.621094 623.992188 813.078125 620.621094 825.605469 607.78125 C 877.285156 554.785156 936.203125 510.585938 997.515625 469.609375 C 1019.226562 455.101562 1026.589844 437.511719 1021.773438 411.902344 C 1011.640625 358 994.382812 306.875 961.972656 246.285156 Z M 1214.636719 962.234375 C 1198.140625 928.46875 1169.503906 918.425781 1124.304688 925.15625 C 1067.1875 933.664062 1008.953125 933.476562 951.316406 927.398438 C 930.261719 925.175781 917.878906 931.167969 907.300781 949.585938 C 863.992188 1024.949219 811.550781 1092.820312 738.730469 1142.363281 C 718.566406 1156.078125 717.347656 1170.144531 728.347656 1190.964844 C 750.03125 1231.964844 769.8125 1273.992188 789.347656 1316.085938 C 796.847656 1332.253906 808.503906 1339.976562 825.320312 1343.246094 C 906.109375 1358.988281 985.460938 1352.285156 1063.683594 1328.402344 C 1072.175781 1325.808594 1080.734375 1321.382812 1087.554688 1315.757812 C 1135.726562 1276.027344 1179.867188 1232.613281 1217.660156 1182.355469 C 1263.859375 1120.90625 1265.339844 1056.035156 1231.863281 991.574219 C 1228.144531 984.421875 1223.097656 976.644531 1214.636719 962.234375 Z M 1343.105469 410.972656 C 1281.390625 307.238281 1206.183594 230.429688 1112.003906 172.296875 C 1103.421875 166.988281 1089.980469 156.464844 1085.765625 159.191406 C 1051.121094 181.519531 1007.890625 176.816406 972.886719 197.34375 C 957.0625 206.621094 955.839844 214.875 965.738281 229.53125 C 1004.371094 286.710938 1027.199219 350.117188 1036.605469 418.328125 C 1038.867188 434.738281 1042.421875 448.324219 1059.527344 456.515625 C 1114.117188 482.660156 1160.144531 521.121094 1205.769531 560.199219 C 1278.515625 622.519531 1278.757812 622.234375 1357.042969 566.605469 C 1357.949219 565.945312 1358.898438 565.332031 1359.855469 564.707031 C 1377.996094 553.054688 1384.523438 536.660156 1381.835938 515.308594 C 1376.621094 473.886719 1359.285156 437.402344 1343.105469 410.972656 Z M 166.199219 1076.300781 C 210.28125 1131.609375 258.191406 1185.519531 319.910156 1225.414062 C 334.777344 1235.023438 344.542969 1233.730469 349.542969 1214.761719 C 358.84375 1179.496094 375.765625 1147.300781 392.617188 1115.277344 C 401.757812 1097.894531 402.425781 1082.609375 394.429688 1063.976562 C 358.230469 979.671875 325.535156 894.117188 315.714844 801.796875 C 314.421875 789.554688 308.335938 781.070312 296.566406 776.160156 C 250.507812 756.96875 206.070312 734.601562 164.917969 706.148438 C 153.460938 698.222656 143.609375 697.78125 137.9375 712.269531 C 114.355469 772.570312 91.523438 833.953125 101.210938 899.773438 C 110.339844 961.824219 140.1875 1017.480469 166.199219 1076.300781 Z M 1266.914062 1114.875 C 1316.339844 1091.417969 1356.550781 1061.179688 1376.957031 1018.234375 C 1424.863281 917.421875 1441.445312 809 1432.304688 697.378906 C 1429.148438 658.824219 1421.648438 621.042969 1400.269531 587.667969 C 1394.402344 578.503906 1388.621094 565.515625 1374.207031 574.644531 C 1344.566406 593.402344 1315.089844 612.359375 1283.132812 627.144531 C 1276.277344 630.328125 1275.804688 638.125 1275.257812 644.933594 C 1268.695312 727.433594 1240.246094 803.722656 1207.746094 878.640625 C 1198.613281 899.707031 1200.859375 916.804688 1212.523438 935.910156 C 1245.101562 989.285156 1273.328125 1044.46875 1266.914062 1114.875 Z M 415.105469 168.007812 C 354.753906 202.730469 302 246.714844 255.390625 298.355469 C 242.667969 312.457031 235.492188 328.085938 234.890625 347.164062 C 233.886719 378.945312 239.660156 384.238281 269.496094 373.820312 C 315.445312 357.785156 361.105469 340.941406 409.214844 332.367188 C 421.226562 330.214844 429.199219 323.558594 436.742188 314.445312 C 470.113281 274.152344 508.511719 239.335938 551.496094 209.371094 C 578.367188 190.636719 604.226562 170.441406 630.402344 150.714844 C 651.234375 135.019531 645.019531 112.527344 638.832031 94.691406 C 632.839844 77.429688 614.792969 88.445312 602.871094 91.273438 C 536.375 107.035156 473.925781 133.160156 415.105469 168.007812 Z M 87.804688 812.289062 C 119.210938 719.707031 154.617188 628.4375 175.027344 532.40625 C 183.515625 492.464844 197.726562 453.996094 215.46875 417.234375 C 225.691406 396.019531 224.027344 376.574219 213.746094 349.820312 C 112.847656 491.859375 72.757812 644.429688 87.804688 812.289062 Z M 606.246094 1403.132812 C 760.328125 1443.234375 971.769531 1416.167969 1063.265625 1345.195312 C 977.789062 1366.582031 894 1374.335938 809.351562 1354.496094 C 801.441406 1352.636719 793.691406 1352.582031 786.203125 1356.328125 C 729.625 1384.578125 668.746094 1395.925781 606.246094 1403.132812 Z M 522.421875 1377.882812 C 434.433594 1330.988281 362 1259.574219 272.527344 1214.339844 C 342.203125 1289.1875 424.765625 1344.621094 522.421875 1377.882812 Z M 522.421875 1377.882812 " fill-opacity="1" fill-rule="evenodd"/></g></g></g></svg>